<svg xmlns="http://www.w3.org/2000/svg" viewBox="0 0 32 32">
  <defs>
    <style>
      .cls-1 {
        fill: #095aa5;
      }
    </style>
  </defs>
  <path id="ic_help_outline_24px" class="cls-1" d="M16.4,27.6h3.2V24.4H16.4ZM18,2A16,16,0,1,0,34,18,16.006,16.006,0,0,0,18,2Zm0,28.8A12.8,12.8,0,1,1,30.8,18,12.817,12.817,0,0,1,18,30.8ZM18,8.4a6.4,6.4,0,0,0-6.4,6.4h3.2a3.2,3.2,0,0,1,6.4,0c0,3.2-4.8,2.8-4.8,8h3.2c0-3.6,4.8-4,4.8-8A6.4,6.4,0,0,0,18,8.4Z" transform="translate(-2 -2)"/>
</svg>
